<?xml version="1.0" encoding="utf-8"?>
<!-- Generator: Adobe Illustrator 21.1.0, SVG Export Plug-In . SVG Version: 6.00 Build 0)  -->
<svg version="1.1" id="Layer_1" xmlns="http://www.w3.org/2000/svg" xmlns:xlink="http://www.w3.org/1999/xlink" x="0px" y="0px"
	 viewBox="0 0 300 300" enable-background="new 0 0 300 300" xml:space="preserve">
<g>
	<path fill="#FFFFFF" d="M9.136,104.02c0.224-18.975,7.103-35.333,20.037-48.837c9.046-9.444,21.525-10.309,33.737-10.711
		c3.502-0.115,5.305,3.016,6.85,5.763c6.127,10.896,12.1,21.879,18.297,32.734c2.638,4.62,5.72,8.986,8.54,13.504
		c3.25,5.207,2.698,10.104-1.421,14.604c-3.358,3.669-6.922,7.089-10.873,10.161c-4.492,3.493-8.707,7.349-12.959,11.141
		c-3.983,3.552-4.528,7.767-2.062,12.446c16.541,31.386,38.598,57.695,69.677,75.694c4.605,2.667,9.262,5.244,13.882,7.886
		c4.838,2.768,9.155,2.208,12.882-2.003c2.925-3.305,5.853-6.609,8.685-9.993c4.015-4.799,7.876-9.725,12.68-13.805
		c4.208-3.575,8.765-4.887,13.616-1.625c15.276,10.271,31.801,18.361,47.683,27.57c4.291,2.488,6.127,6.048,4.998,11.13
		c-0.836,3.759-1.125,7.635-1.775,11.439c-3.036,17.788-16.654,25.488-31.122,32.074c-15.568,7.087-31.615,7.521-47.858,2.207
		c-23.42-7.663-46.597-15.841-66.463-31.087c-31.689-24.319-59.676-52.022-77.928-88.11c-7.621-15.068-13.026-31.125-17.546-47.442
		C9.334,113.857,9.754,108.886,9.136,104.02z"/>
	<path fill="#FFFFFF" d="M251.17,47.423c23.876,24.466,37.099,53.607,38.485,87.925c0.138,3.42,0.063,6.842-2.066,9.704
		c-3.058,4.112-7.228,5.701-12.235,4.451c-4.376-1.093-8.328-6.175-8.47-11.122c-0.474-16.461-3.836-32.243-11.58-46.824
		c-19.093-35.953-49.138-55.266-89.688-58.387c-5.006-0.385-10.21,0.625-14.372-4.009c-5.866-6.531-3.414-16.178,5.135-18.528
		c2.987-0.821,6.032-0.669,9.039-0.496c29.566,1.704,56.014,11.292,78.381,31.151c1.189,1.056,2.685,1.762,3.914,2.78
		C248.946,45.088,250.024,46.297,251.17,47.423z"/>
	<path fill="#FFFFFF" d="M222.353,80.029c15.916,15.633,23.657,34.784,24.386,56.909c0.159,4.828-0.797,9.295-5.629,11.801
		c-8.3,4.304-16.856-0.961-17.171-10.61c-0.367-11.261-3.029-21.91-9.144-31.408c-12.628-19.613-30.495-30.354-54.065-30.936
		c-9.606-0.237-14.971-7.757-11.418-16.259c2.089-4.999,6.361-6.47,11.291-6.453c21.952,0.076,41.195,7.118,57.165,22.454
		C219.313,77.012,220.826,78.528,222.353,80.029z"/>
	<path fill="#FFFFFF" d="M200.498,146.756c-3.307,3.874-7.243,4.744-11.708,3.182c-4.399-1.54-7.137-4.667-7.612-9.348
		c-0.454-4.467-0.991-8.866-3.648-12.647c-4.176-5.943-10.018-8.787-17.202-9.29c-7.174-0.503-11.767-4.994-11.75-11.196
		c0.017-6.207,5.349-11.365,12.271-11.452c12.078-0.152,22.047,4.795,30.423,13.234c7.275,7.33,11.557,16.121,12.456,26.445
		C204.088,139.829,204.003,143.951,200.498,146.756z"/>
</g>
</svg>
