<?xml version="1.0" encoding="utf-8"?>
<!-- Generator: Adobe Illustrator 23.0.1, SVG Export Plug-In . SVG Version: 6.00 Build 0)  -->
<svg version="1.1" id="Layer_1" xmlns="http://www.w3.org/2000/svg" xmlns:xlink="http://www.w3.org/1999/xlink" x="0px" y="0px"
	 viewBox="0 0 1492.3 522.9" style="enable-background:new 0 0 1492.3 522.9;" xml:space="preserve">
<style type="text/css">
	.st0{fill:#FFFFFF;}
</style>
<path class="st0" d="M156.1,357.9c-11.1,1.6-16.5,9.7-21.4,18.4c-1.7-6.2,0.4-13.4,6.9-23.3c-7.3-1.4-15.5,2.4-22.1,9.2
	c-7.3,7.4-15,14.5-22.9,21.3c-5.9,5.1-13.1,7.2-21.6,6.5c0.2,7.9,2.4,15.3,8.6,19.6c12,8.4,25.2,11.2,39.7,3.8
	c-3.6-4.1-7.1-8.1-11-12.5c-1.6,3-2.6,6.1-6.4,5c2.4-6.3,1.5-7.7-5.2-9.1c-1.8-0.4-3.6-0.9-5.7-1.4c13.5-6.2,28.2-2.8,34.6,12.3
	c1.3,3.1-0.8,4.8-2.7,6.1c-9.1,6-18.9,9-29.7,5.8c-3.6-1.1-6.9-2.7-9.7-3.8c-4.1,9.3-8.2,18.5-12.6,28.4
	c-12-10.5-20.4-21.9-22.3-36.7c-2.6-19.6,6.8-45.7,33.3-58.5c7.7-3.7,15.5-7.3,23.5-10.5c12.9-5.2,24.3-12.6,34.5-22
	c4.8-4.5,9.9-8.6,15.1-12.7c22.7-18.1,53.7-4.6,62.3,17.6c4.2,10.9,6.2,22.2,7.3,33.6c1.8,19.1,7.9,36.6,17.6,52.9
	c3.1,5.1,5.7,10.5,8.5,15.8c10.1,19.2,7.6,37.7-3.5,55.4c-9.1,14.6-23,22.8-39.1,27.7c-3.8,1.2-7.9,1.5-12.1,1.8
	c4.7-8,8-15.9,7-25.3c1,1.5,2,3,3,4.5c0.7-2.8-0.5-9.8-3.3-16c-2.3-5.1-4.9-10.1-7.8-14.9c-2.8-4.8-6.2-9.3-9.4-14
	c2,0.9,4.1,1.8,6.2,2.7c0.2-0.3,0.5-0.6,0.7-0.8c-1-0.8-2.1-1.5-3.1-2.3c-10.7-9.3-12.9-24.2-7.7-36.8c3.8-9.2,8.9-17.5,17.8-23
	c1.1-0.7,3.5-1.5,1.6-3.8c-0.2-0.2,0.6-1.1,0.9-1.8c0.9-2,2-4,2.5-6.2c0.5-1.9,0-3.6-2.1-4.6c-1.9-0.9-3.5-2.4-5.4-3.7
	c-1.1,4.6-2.9,9.6-7.8,13c-0.4-1-0.7-2-1-2.5c-1.6,1.7-3.2,3.3-4.8,5c-0.9-8.9,2.5-15.9,7.4-22.2c2.2-2.9,3.8-2.3,5.4,1.9
	c3.6-5.9,5.6-11.8,5.1-18.4c-0.1-1.1-0.1-2.2-0.4-3.1c-2.6-7.1-0.4-15.3-4.8-22.1c-0.6-1-1.1-2-2-3.5c-2,1.8-3.6,3.3-5.1,4.8
	c-9.5,9.3-18.8,18.7-28.4,27.9c-2.5,2.4-5.5,4.4-8.6,6c-2.3,1.1-2.7,2.2-1.7,4.3C154.7,355.1,155.4,356.4,156.1,357.9z"/>
<path class="st0" d="M336.8,169c-1.4,30.2-8.8,54.9-27.1,75.3c-9.1,10.1-20.1,16.7-34.4,16.7c-33.6,0.2-45-33.2-37.2-53.1
	c4.4-11.2,11.5-20.4,19.6-28.9c3.1-3.2,6.2-6.5,9.4-9.6c7.3-7,12.8-15.2,16.3-24.8c1.5-4.2,3-8.6,5.7-12c3.5-4.6,8-8.5,12.3-12.3
	c1-0.9,3.4-0.6,5-0.1c14.2,4.3,22.6,14.4,26.6,28.1C335.1,156,335.9,164.1,336.8,169z"/>
<path class="st0" d="M129.9,168c-0.2-19.6,8.2-35.9,19.6-51c5.8-7.6,12.2-14.8,20.5-19.5c4.8-2.7,10.2-5,15.6-5.9
	c10.2-1.7,16.9,4.1,17.5,14.3c0.3,5.5,0.1,11.1-0.7,16.5c-1.5,10.5,1.3,19.8,5.6,29.2c3.8,8.1,7.3,16.6,9.1,25.3
	c2.7,13.2-2.8,25-10.5,35.4c-3.6,4.8-8,9.3-12.8,12.9c-15.1,11.2-31.4,9.4-44.2-4.4c-11.2-12.2-16.8-26.9-18.9-43.1
	C130.2,174.5,130.1,171.2,129.9,168z"/>
<path class="st0" d="M370.4,319.6c-1.7,25.6-7.6,51.9-26.7,73.5c-3.8,4.3-8.3,8.3-13.1,11.6c-15.6,10.7-32.1,8.8-45.1-4.9
	c-18.8-19.7-20.5-48.8-3.8-71.2c3.7-5,9.7-8.3,15.1-11.9c4.2-2.8,8.9-4.8,13.4-7c9.8-4.7,18.7-10.7,26.3-18.6
	c3.3-3.4,7.2-5.9,12.2-6.5c8.3-1,14.1,2.1,17.7,9.7C369.7,301.6,370.2,309.4,370.4,319.6z"/>
<path class="st0" d="M39.5,240c0.4-16.7,4.1-33.2,14.9-47.4c4.5-5.9,10-10.5,16.7-13.7c6.6-3.1,13.2-1.5,16.3,5.1
	c2.3,4.8,3,10.2,4.3,15.4c0.4,1.5,0.5,3.1,0.3,4.5c-0.9,7.1,3.4,11.6,7.9,15.9c3.7,3.5,7.6,6.7,11.1,10.3
	c18.6,19.1,14.2,53.1-8.5,66.3c-17.4,10.1-41.4,3.4-52.8-15C42.1,269.1,39.7,255.2,39.5,240z"/>
<path class="st0" d="M224.4,25.1c-2.2,11.3-4.1,21.9-6.5,32.3c-0.8,3.3-2.6,6.5-4.6,9.4c-3.5,5-8.5,6.1-14.3,3.6
	c-5.3-2.3-7.6-6.4-6.3-12.6c0.7-3,1.9-6.1,3.4-8.8c5.1-8.9,12-16.1,20.8-21.4c1.4-0.8,2.9-1.4,4.5-2.1
	C222,25.4,222.6,25.4,224.4,25.1z"/>
<path class="st0" d="M319.9,51.7c3,0,4.9,1.9,6.1,5.3c3.6,9.7,6.9,19.5,5.6,30.1c-0.3,2.7-1.1,5.6-2.3,8.1c-3.3,7-7,8.8-13.5,6.7
	c-7.2-2.3-10.2-7-8.7-14.2c0.8-4,2.3-7.9,3.6-11.7C313.7,67.8,316.8,59.9,319.9,51.7z"/>
<path class="st0" d="M82.5,109.7c4.9,13.5,6.2,26,0,38.6c-0.2,0.3-0.4,0.6-0.6,0.9c-3.2,4.9-7.9,7.8-10.9,6.7
	c-7.2-2.6-11.5-8.8-10.7-15.2c1.1-8.3,5.9-14.7,11.3-20.6C74.9,116.6,78.5,113.5,82.5,109.7z"/>
<path class="st0" d="M373.7,223.4c3.6,3.7,5,8.4,6.1,13.2c1.6,7.7,1.5,15.4-1,22.9c-3.2,9.5-10.5,13.2-19.9,10.5
	c-1.8-0.5-2.7-1.3-2.9-3.3c-0.7-7.3,1.6-13.9,4.9-20.1c2.1-3.9,4.5-7.7,6.7-11.6C369.6,231.3,371.6,227.5,373.7,223.4z"/>
<path class="st0" d="M78.5,446.7c-1-0.7-1.8-1.3-2.8-1.9c2.2-1.7,4.1-3.2,6-4.7c0.2,0.1,0.3,0.2,0.5,0.3
	C81,442.4,79.9,444.4,78.5,446.7z"/>
<g>
	<path class="st0" d="M435.7,307.9v-82.8H482v8.8h-34.5v26.6h28.9v8.7h-28.9v30h36.9v8.8H435.7z"/>
	<path class="st0" d="M520.4,307.9l-31.3-82.8h11.8l25.6,67.8l24.7-67.8h10.3l-30.1,82.8H520.4z"/>
	<path class="st0" d="M606.1,310c-11.5,0-20.7-4-27.7-12s-10.5-18.5-10.5-31.6c0-13.2,3.5-23.7,10.6-31.6c7-7.9,16.4-11.8,28.2-11.8
		c11.7,0,21.1,3.9,28.2,11.8c7.1,7.9,10.6,18.4,10.6,31.5c0,13.4-3.5,24-10.6,31.9C627.8,306.1,618.2,310,606.1,310z M606.3,301.2
		c8.5,0,15-3.1,19.6-9.2c4.6-6.1,6.9-14.7,6.9-25.8c0-10.8-2.3-19.2-7-25.3c-4.6-6.1-11.1-9.1-19.3-9.1c-8.2,0-14.7,3.1-19.3,9.2
		c-4.6,6.1-6.9,14.6-6.9,25.4c0,10.8,2.3,19.3,6.9,25.5C591.9,298.1,598.2,301.2,606.3,301.2z"/>
	<path class="st0" d="M661.8,307.9v-82.8h11.8v74.1h37.3v8.8H661.8z"/>
	<path class="st0" d="M722.3,225.1h11.8v52.3c0,8.3,1.5,14.4,4.6,18.2c3.1,3.8,8,5.7,14.7,5.7c6.6,0,11.2-1.8,14-5.3
		c2.7-3.6,4.1-9.6,4.1-18.1v-52.7h10.3v52.5c0,11.3-2.3,19.5-7,24.7c-4.6,5.1-12,7.7-22.2,7.7c-10.3,0-18-2.7-22.9-8
		c-4.9-5.3-7.4-13.6-7.4-24.7V225.1z"/>
	<path class="st0" d="M822.1,307.9v-74.1h-29.4v-8.8h70.5v8.8h-29.4v74.1H822.1z"/>
	<path class="st0" d="M874.8,307.9v-82.8h11.8v82.8H874.8z"/>
	<path class="st0" d="M941.3,310c-11.5,0-20.7-4-27.7-12s-10.5-18.5-10.5-31.6c0-13.2,3.5-23.7,10.6-31.6c7-7.9,16.4-11.8,28.2-11.8
		c11.7,0,21.1,3.9,28.2,11.8c7.1,7.9,10.6,18.4,10.6,31.5c0,13.4-3.5,24-10.6,31.9C962.9,306.1,953.3,310,941.3,310z M941.5,301.2
		c8.5,0,15-3.1,19.6-9.2c4.6-6.1,6.9-14.7,6.9-25.8c0-10.8-2.3-19.2-7-25.3c-4.6-6.1-11.1-9.1-19.3-9.1c-8.2,0-14.7,3.1-19.3,9.2
		c-4.6,6.1-6.9,14.6-6.9,25.4c0,10.8,2.3,19.3,6.9,25.5C927,298.1,933.4,301.2,941.5,301.2z"/>
	<path class="st0" d="M997,307.9v-82.8h11.5l41.7,64v-64h10.1v82.8h-11.5l-41.8-64v64H997z"/>
	<path class="st0" d="M1136.1,307.9l-9-23H1092l-9.1,23h-10.9l32.9-82.8h11.6l32.4,82.8H1136.1z M1123.7,276.2l-14.1-35.7
		l-14.2,35.7H1123.7z"/>
	<path class="st0" d="M1160.8,307.9v-82.8h25.1c7.9,0,14,1.8,18.3,5.3c4.2,3.5,6.4,8.6,6.4,15.3c0,11-5.6,18.9-16.7,23.5l27.7,38.8
		H1207l-23.6-35h-11v35H1160.8z M1172.4,264.1h3.8c14.8,0,22.2-5.8,22.2-17.4c0-8.5-6.2-12.8-18.6-12.8h-7.4V264.1z"/>
	<path class="st0" d="M1251.2,307.9v-34.6l-27.7-48.3h13.4l21.5,37.4l23.2-37.4h10.9l-29.6,48v34.8H1251.2z"/>
	<path class="st0" d="M1341,307.9v-82.8h11v40.8l33.5-40.8h11.8l-32.5,39.5l38.2,43.3h-14.9l-36.2-42v42H1341z"/>
	<path class="st0" d="M1418.2,307.4v-9.3c7,2.4,13,3.6,17.9,3.6c6.9,0,12.2-2.9,16.1-8.8c3.9-5.8,5.8-14,5.8-24.4
		c-5.6,6.9-12,10.4-19.1,10.4c-7,0-12.9-2.6-17.7-7.7c-4.9-5.1-7.3-11.4-7.3-18.8c0-8.5,2.6-15.5,7.8-21.1
		c5.2-5.6,11.7-8.4,19.5-8.4c9,0,16.1,3.6,21.3,10.8c5.2,7.2,7.8,17.1,7.8,29.6c0,14.3-3.2,25.6-9.5,34
		c-6.3,8.4-14.9,12.6-25.7,12.6C1430.7,310,1425.1,309.1,1418.2,307.4z M1424.9,250.3c0,6.4,1.4,11.5,4.3,15.2
		c2.9,3.7,6.8,5.5,11.7,5.5c4.7,0,8.6-1.6,12-4.8c3.3-3.2,5-7,5-11.5c0-7.1-1.6-12.7-4.8-17c-3.2-4.3-7.4-6.5-12.6-6.5
		c-4.8,0-8.6,1.7-11.4,5.1C1426.3,239.8,1424.9,244.4,1424.9,250.3z"/>
</g>
</svg>
