<?xml version="1.0" encoding="utf-8"?>
<!-- Generator: Adobe Illustrator 22.1.0, SVG Export Plug-In . SVG Version: 6.00 Build 0)  -->
<svg version="1.1" id="Layer_1" xmlns="http://www.w3.org/2000/svg" xmlns:xlink="http://www.w3.org/1999/xlink" x="0px" y="0px"
	 width="300px" height="300px" viewBox="0 0 300 300" style="enable-background:new 0 0 300 300;" xml:space="preserve">
<style type="text/css">
	.st0{fill:#FFFFFF;}
</style>
<path class="st0" d="M97.1,268.5c110.2,0,170.5-91.3,170.5-170.5c0-2.6,0-5.2-0.2-7.7c11.7-8.5,21.8-19,29.9-31
	c-10.9,4.8-22.5,8-34.4,9.4c12.5-7.5,21.9-19.3,26.3-33.1c-11.8,7-24.6,11.9-38,14.5c-22.7-24.1-60.6-25.3-84.8-2.6
	c-15.6,14.6-22.2,36.4-17.3,57.2c-48.2-2.4-93-25.2-123.5-62.6c-15.9,27.4-7.8,62.4,18.5,80c-9.5-0.3-18.9-2.9-27.2-7.5
	c0,0.2,0,0.5,0,0.8c0,28.5,20.1,53.1,48.1,58.7c-8.8,2.4-18.1,2.8-27.1,1c7.8,24.4,30.3,41.1,56,41.6
	c-21.2,16.7-47.4,25.7-74.4,25.7c-4.8,0-9.5-0.3-14.3-0.9C32.7,259.1,64.6,268.5,97.1,268.5"/>
</svg>
